<svg width="192" height="40" viewBox="0 0 192 40" fill="none" xmlns="http://www.w3.org/2000/svg">
<path d="M73.931 12.3166H71.3414C71.0958 12.3286 70.8546 12.2487 70.6648 12.0925C70.475 11.9363 70.3502 11.715 70.3148 11.4717C70.1669 10.3099 70.0613 9.35942 70.0022 8.61167H59.5674V17.5424H70.5049V22.1895H59.5674V31.2892H69.9684C70.0275 30.5457 70.1317 29.5938 70.281 28.4334C70.3173 28.1905 70.4423 27.9698 70.6319 27.8137C70.8215 27.6577 71.0622 27.5774 71.3076 27.5885H73.931V36.1137H50.1635V33.4776C50.1444 33.1517 50.2484 32.8305 50.455 32.5777C50.6616 32.325 50.9556 32.1591 51.2788 32.113L51.5492 32.0665C51.6468 32.0667 51.7438 32.051 51.8365 32.0201C51.9421 31.9947 52.0688 31.9609 52.2167 31.9314L53.5559 31.7075V8.2568L52.2167 8.0329C52.0702 8.00192 51.9435 7.97235 51.8365 7.94418C51.7433 7.91535 51.6466 7.89971 51.5492 7.89771L51.2788 7.85547C50.9522 7.80826 50.6556 7.63908 50.4486 7.38199C50.2417 7.1249 50.1398 6.79898 50.1635 6.4698V3.83789H73.931V12.3166Z" fill="#1E3264"/>
<path d="M93.2391 36.0202C92.922 36.023 92.6114 35.9303 92.3477 35.7541C92.2195 35.6664 92.1101 35.5539 92.0259 35.4233C91.9418 35.2928 91.8846 35.1467 91.8577 34.9937L91.4099 32.8814C90.5037 33.8984 89.4325 34.7553 88.2414 35.4161C86.9392 36.0964 85.4856 36.4351 84.0168 36.4005C82.8455 36.4225 81.6862 36.1616 80.6372 35.64C79.5737 35.1035 78.6473 34.3303 77.9292 33.3799C77.1152 32.286 76.5239 31.043 76.1887 29.7214C75.7568 28.0897 75.5465 26.4073 75.5634 24.7195C75.5487 23.1178 75.7736 21.523 76.2309 19.988C76.6525 18.6039 77.3351 17.3133 78.2418 16.1858C79.0799 15.1437 80.1296 14.2912 81.3216 13.6849C82.5773 13.0438 83.9716 12.7217 85.3814 12.747C86.5146 12.7175 87.6409 12.9307 88.685 13.3723C89.5789 13.7583 90.396 14.3021 91.0972 14.9776V7.36068L89.8045 7.141C89.676 7.11796 89.549 7.08692 89.4243 7.04806C89.3291 7.0227 89.2313 7.00852 89.1328 7.00582L88.8667 6.95934C88.5396 6.91409 88.242 6.74619 88.0341 6.48968C87.8262 6.23318 87.7237 5.90723 87.7471 5.57791V2.96289H96.6188V31.69L97.7805 31.8675L98.3593 32.0027L98.6297 32.0449C98.9494 32.0886 99.2417 32.2492 99.45 32.4958C99.6583 32.7423 99.7679 33.0573 99.7576 33.3799V36.0118L93.2391 36.0202ZM89.0863 17.4532C88.3239 17.1319 87.5057 16.9639 86.6783 16.9589C85.9063 16.9589 85.1435 17.1276 84.4435 17.4532C83.7543 17.7781 83.1563 18.2687 82.703 18.8811C82.2088 19.6152 81.8471 20.4302 81.6342 21.2891C81.3649 22.4148 81.2441 23.5709 81.2751 24.7279C81.2492 25.8823 81.354 27.0359 81.5877 28.1667C81.7541 28.9636 82.0726 29.7209 82.5256 30.3973C82.8677 30.9562 83.3634 31.4049 83.9535 31.69C84.5681 31.9769 85.2396 32.1213 85.9179 32.1125C86.9507 32.1527 87.9744 31.9056 88.8751 31.3985C89.7499 30.8529 90.5209 30.1563 91.1522 29.3412V19.0585C90.6111 18.3567 89.9001 17.8042 89.0863 17.4532Z" fill="#1E3264"/>
<path d="M119.312 13.5679L118.598 17.7207C118.598 17.8246 118.574 17.9272 118.528 18.0203C118.482 18.1134 118.415 18.1945 118.332 18.2572C118.146 18.3776 117.928 18.4394 117.706 18.4346C117.405 18.4228 117.106 18.3775 116.815 18.2995C116.302 18.184 115.778 18.1245 115.252 18.122C114.188 18.0867 113.144 18.4177 112.295 19.0599C111.409 19.8279 110.713 20.791 110.263 21.8735V31.6914L112.498 32.1138C112.824 32.1601 113.12 32.3284 113.327 32.5848C113.534 32.8412 113.636 33.1666 113.613 33.4953V36.1314H101.362V33.4784C101.343 33.1512 101.448 32.829 101.656 32.576C101.864 32.323 102.161 32.158 102.485 32.1138L104.716 31.6914V17.632L102.485 17.2306C102.158 17.1844 101.86 17.0156 101.652 16.7584C101.445 16.5013 101.342 16.1748 101.366 15.845V13.2131H107.973C108.386 13.1654 108.802 13.2772 109.135 13.5257C109.386 13.83 109.542 14.2019 109.583 14.5945L109.937 17.3616C110.622 16.0422 111.601 14.8976 112.797 14.0157C113.873 13.2306 115.171 12.8089 116.502 12.8117C117.495 12.7659 118.477 13.0302 119.312 13.5679Z" fill="#1E3264"/>
<path d="M135.61 13.5248C136.79 13.9711 137.857 14.6722 138.736 15.578C139.641 16.5078 140.341 17.6175 140.789 18.8351C141.307 20.2355 141.565 21.7188 141.549 23.2118C141.55 23.5701 141.519 23.9278 141.457 24.2806C141.432 24.4973 141.372 24.7085 141.279 24.9059C141.238 24.9919 141.179 25.0683 141.106 25.1301C141.033 25.1919 140.948 25.2379 140.857 25.2649C140.665 25.3342 140.461 25.3643 140.257 25.3537H126.104C126.285 27.7053 126.925 29.4318 128.027 30.533C128.605 31.0909 129.291 31.5252 130.043 31.8092C130.794 32.0932 131.596 32.221 132.399 32.1848C133.17 32.2063 133.939 32.1007 134.676 31.8722C135.262 31.6913 135.828 31.4521 136.366 31.1582C136.573 31.0399 136.788 30.9259 137.012 30.8203C137.236 30.7147 137.435 30.6048 137.659 30.4865C137.964 30.2861 138.32 30.1776 138.685 30.1739C138.901 30.1693 139.116 30.2156 139.31 30.3091C139.477 30.3839 139.617 30.5077 139.712 30.664L141.321 32.6749C140.722 33.374 140.032 33.9893 139.268 34.5041C138.527 34.9806 137.733 35.3704 136.902 35.6659C136.073 35.9226 135.226 36.1161 134.368 36.2446C133.541 36.3705 132.707 36.4312 131.871 36.4263C130.362 36.4492 128.862 36.1913 127.448 35.6659C126.105 35.1373 124.888 34.3312 123.878 33.3001C122.811 32.2055 121.989 30.8965 121.466 29.46C120.867 27.7551 120.581 25.9562 120.621 24.1497C120.62 22.6582 120.876 21.1777 121.377 19.773C121.856 18.4328 122.6 17.2029 123.565 16.1567C124.528 15.1189 125.7 14.298 127.004 13.7487C128.475 13.1318 130.057 12.8269 131.651 12.8531C133 12.8368 134.341 13.0644 135.61 13.5248ZM127.972 18.1719C127.079 19.0619 126.499 20.3405 126.231 22.0078H136.59C136.58 21.3275 136.475 20.652 136.277 20.0011C136.079 19.4019 135.775 18.8426 135.382 18.3493C134.977 17.8572 134.455 17.4739 133.865 17.234C133.19 16.9367 132.46 16.7842 131.723 16.7862C131.036 16.7507 130.35 16.8553 129.705 17.0935C129.06 17.3317 128.47 17.6986 127.972 18.1719Z" fill="#1E3264"/>
<path d="M160.559 36.0202C160.242 36.023 159.932 35.9303 159.668 35.7541C159.54 35.6664 159.43 35.5539 159.346 35.4233C159.262 35.2928 159.205 35.1467 159.178 34.9937L158.73 32.8814C157.824 33.8984 156.753 34.7553 155.562 35.4161C154.26 36.0964 152.806 36.4351 151.337 36.4005C150.166 36.4225 149.006 36.1616 147.957 35.64C146.894 35.1035 145.968 34.3303 145.25 33.3799C144.434 32.287 143.842 31.0437 143.509 29.7214C143.077 28.0897 142.867 26.4073 142.884 24.7195C142.869 23.1178 143.094 21.523 143.551 19.988C143.973 18.6039 144.655 17.3133 145.562 16.1858C146.4 15.1437 147.45 14.2912 148.642 13.6849C149.898 13.0438 151.292 12.7217 152.702 12.747C153.835 12.7175 154.961 12.9307 156.005 13.3723C156.899 13.7583 157.716 14.3021 158.418 14.9776V7.36068L157.121 7.141C156.994 7.11751 156.868 7.08647 156.745 7.04806C156.649 7.0227 156.552 7.00852 156.453 7.00582L156.187 6.95934C155.86 6.91409 155.562 6.74619 155.354 6.48968C155.147 6.23318 155.044 5.90723 155.067 5.57791V2.96289H163.939V31.69L165.101 31.8675L165.68 32.0027L165.95 32.0449C166.27 32.0886 166.562 32.2492 166.77 32.4958C166.979 32.7423 167.088 33.0573 167.078 33.3799V36.0118L160.559 36.0202ZM156.407 17.4532C155.644 17.1319 154.826 16.9639 153.999 16.9589C153.227 16.9583 152.464 17.127 151.764 17.4532C151.075 17.7781 150.477 18.2687 150.023 18.8811C149.529 19.6152 149.167 20.4302 148.954 21.2891C148.685 22.4148 148.564 23.5709 148.595 24.7279C148.569 25.8823 148.674 27.0359 148.908 28.1667C149.074 28.9636 149.393 29.7209 149.846 30.3973C150.188 30.9562 150.684 31.4049 151.274 31.69C151.888 31.9769 152.56 32.1213 153.238 32.1125C154.271 32.1527 155.295 31.9056 156.195 31.3985C157.07 30.8539 157.839 30.1571 158.468 29.3412V19.0585C157.928 18.3579 157.218 17.8056 156.407 17.4532Z" fill="#1E3264"/>
<path d="M184.487 13.7028C185.828 14.2122 187.046 15.003 188.056 16.0221C189.058 17.084 189.821 18.349 190.291 19.7312C190.844 21.2918 191.116 22.9382 191.094 24.5937C191.114 26.2657 190.842 27.9283 190.291 29.5069C189.804 30.8929 189.044 32.1671 188.056 33.2541C187.064 34.3062 185.842 35.1157 184.487 35.6199C183.002 36.1781 181.425 36.4519 179.839 36.4268C178.24 36.4482 176.65 36.1747 175.15 35.6199C173.795 35.1146 172.574 34.3053 171.58 33.2541C170.541 32.191 169.749 30.9115 169.261 29.5069C168.709 27.9285 168.436 26.2659 168.454 24.5937C168.433 22.9379 168.707 21.2916 169.261 19.7312C169.772 18.349 170.561 17.0864 171.58 16.0221C172.592 15.0038 173.809 14.2131 175.15 13.7028C176.647 13.1314 178.237 12.8448 179.839 12.8578C181.428 12.8469 183.004 13.1335 184.487 13.7028ZM184.039 30.2631C184.962 28.9253 185.424 27.051 185.424 24.6402C185.424 22.2294 184.962 20.3551 184.039 19.0173C183.146 17.7105 181.748 17.0571 179.844 17.0571C177.94 17.0571 176.512 17.7105 175.56 19.0173C174.605 20.3297 174.128 22.2195 174.128 24.6867C174.128 27.1003 174.605 28.9605 175.56 30.2673C176.515 31.5741 177.943 32.2149 179.844 32.1895C181.75 32.1867 183.149 31.5446 184.039 30.2631Z" fill="#1E3264"/>
<path d="M36.7007 0.0909988L31.8551 1.35837L10.2422 22.9713L16.9001 29.6504L38.5807 7.98674L39.8185 3.20452C39.9368 2.77278 39.9386 2.31742 39.8238 1.88475C39.709 1.45207 39.4817 1.05751 39.1649 0.741196C38.8482 0.424878 38.4533 0.198085 38.0205 0.08388C37.5877 -0.0303254 37.1323 -0.0278692 36.7007 0.0909988Z" fill="#1E3264"/>
<path d="M1.90973 9.20275C1.47443 9.31649 1.07686 9.54313 0.757206 9.85976C0.437554 10.1764 0.207149 10.5718 0.0892742 11.006C-0.0286004 11.4402 -0.0297666 11.8978 0.0858934 12.3326C0.201553 12.7674 0.429941 13.164 0.747974 13.4823L5.39501 18.1293L18.7447 4.77539L1.90973 9.20275Z" fill="#1E3264"/>
<path d="M21.75 34.4781L26.5027 39.2307C26.818 39.5553 27.2145 39.7895 27.651 39.9091C28.0874 40.0286 28.5479 40.0291 28.9846 39.9106C29.4214 39.792 29.8184 39.5587 30.1345 39.2349C30.4506 38.911 30.6742 38.5085 30.7822 38.069L35.1968 21.0312L21.75 34.4781Z" fill="#E84F2D"/>
</svg>
